mtllib fish.mtl
o Colorful_Fish

# body vertices
v -1.5 0 0
v -0.8 0.8 0
v 0.4 0.8 0
v 1.2 0 0
v 0.4 -0.8 0
v -0.8 -0.8 0

# thickness (back side)
v -1.5 0 0.5
v -0.8 0.8 0.5
v 0.4 0.8 0.5
v 1.2 0 0.5
v 0.4 -0.8 0.5
v -0.8 -0.8 0.5

# tail
v 1.2 0 0
v 2.2 0.8 0
v 2.2 -0.8 0
v 1.2 0 0.5
v 2.2 0.8 0.5
v 2.2 -0.8 0.5

# body faces
usemtl Orange
f 1 2 3
f 1 3 4
f 1 4 5
f 1 5 6

f 7 9 8
f 7 10 9
f 7 11 10
f 7 12 11

# sides
f 1 7 8
f 1 8 2
f 2 8 9
f 2 9 3
f 3 9 10
f 3 10 4
f 4 10 11
f 4 11 5
f 5 11 12
f 5 12 6

# tail
usemtl Blue
f 13 14 15
f 16 18 17
f 13 16 17
f 13 17 14
f 13 15 18
f 13 18 16